REM DIRINDEX 1\6,1\2\7,1\2\8,1\2\9,1\3\10,1\3\11,1\4\12,1\4\13,1\4\14,1\5\15,1\5\16,1\5\17
REM DIRNAME cjc040,folder01,folder02,folder03,folder04,folder05,folder06,folder07,folder08,folder09,folder10,folder11,folder12,folder13,folder14,folder15,folder16
TITLE ""
FILE "P2Q_t_0269-0285.mp3" MP3
  TRACK 01 AUDIO
    TITLE "6:cjc040_2187"
    INDEX 01 00:00:00
  TRACK 02 AUDIO
    TITLE "0:"
    INDEX 01 00:07:17
  TRACK 03 AUDIO
    TITLE "10:cjc040_2188"
    INDEX 01 00:08:28
  TRACK 04 AUDIO
    TITLE "0:"
    INDEX 01 00:09:26
  TRACK 05 AUDIO
    TITLE "11:cjc040_2189"
    INDEX 01 00:10:18
  TRACK 06 AUDIO
    TITLE "0:"
    INDEX 01 00:12:69
  TRACK 07 AUDIO
    TITLE "10:cjc040_2190"
    INDEX 01 00:13:47
  TRACK 08 AUDIO
    TITLE "0:"
    INDEX 01 00:14:58
  TRACK 09 AUDIO
    TITLE "11:cjc040_2191"
    INDEX 01 00:15:38
  TRACK 10 AUDIO
    TITLE "0:"
    INDEX 01 00:17:72
  TRACK 11 AUDIO
    TITLE "10:cjc040_2192"
    INDEX 01 00:18:48
  TRACK 12 AUDIO
    TITLE "0:"
    INDEX 01 00:19:56
  TRACK 13 AUDIO
    TITLE "11:cjc040_2193"
    INDEX 01 00:20:37
  TRACK 14 AUDIO
    TITLE "0:"
    INDEX 01 00:23:03
  TRACK 15 AUDIO
    TITLE "10:cjc040_2194"
    INDEX 01 00:23:50
  TRACK 16 AUDIO
    TITLE "0:"
    INDEX 01 00:25:11
  TRACK 17 AUDIO
    TITLE "11:cjc040_2195"
    INDEX 01 00:25:60
  TRACK 18 AUDIO
    TITLE "0:"
    INDEX 01 00:26:69
  TRACK 19 AUDIO
    TITLE "10:cjc040_2196"
    INDEX 01 00:27:49
  TRACK 20 AUDIO
    TITLE "0:"
    INDEX 01 00:28:53
  TRACK 21 AUDIO
    TITLE "11:cjc040_2197"
    INDEX 01 00:29:33
  TRACK 22 AUDIO
    TITLE "0:"
    INDEX 01 00:30:57
  TRACK 23 AUDIO
    TITLE "10:cjc040_2198"
    INDEX 01 00:31:35
  TRACK 24 AUDIO
    TITLE "0:"
    INDEX 01 00:32:52
  TRACK 25 AUDIO
    TITLE "11:cjc040_2199"
    INDEX 01 00:33:32
  TRACK 26 AUDIO
    TITLE "0:"
    INDEX 01 00:34:51
  TRACK 27 AUDIO
    TITLE "10:cjc040_2200"
    INDEX 01 00:35:29
  TRACK 28 AUDIO
    TITLE "0:"
    INDEX 01 00:36:42
  TRACK 29 AUDIO
    TITLE "11:cjc040_2201"
    INDEX 01 00:37:24
  TRACK 30 AUDIO
    TITLE "0:"
    INDEX 01 00:40:07
  TRACK 31 AUDIO
    TITLE "10:cjc040_2202"
    INDEX 01 00:40:64
  TRACK 32 AUDIO
    TITLE "0:"
    INDEX 01 00:41:73
  TRACK 33 AUDIO
    TITLE "11:cjc040_2203"
    INDEX 01 00:42:49
  TRACK 34 AUDIO
    TITLE "0:"
    INDEX 01 00:45:08
  TRACK 35 AUDIO
    TITLE "10:cjc040_2204"
    INDEX 01 00:45:65
  TRACK 36 AUDIO
    TITLE "0:"
    INDEX 01 00:46:66
  TRACK 37 AUDIO
    TITLE "11:cjc040_2205"
    INDEX 01 00:47:46
  TRACK 38 AUDIO
    TITLE "0:"
    INDEX 01 00:50:29
  TRACK 39 AUDIO
    TITLE "10:cjc040_2206"
    INDEX 01 00:51:13
  TRACK 40 AUDIO
    TITLE "0:"
    INDEX 01 00:52:28
  TRACK 41 AUDIO
    TITLE "11:cjc040_2207"
    INDEX 01 00:53:15
  TRACK 42 AUDIO
    TITLE "0:"
    INDEX 01 00:54:48
  TRACK 43 AUDIO
    TITLE "10:cjc040_2208"
    INDEX 01 00:55:30
  TRACK 44 AUDIO
    TITLE "0:"
    INDEX 01 00:56:53
  TRACK 45 AUDIO
    TITLE "11:cjc040_2209"
    INDEX 01 00:57:31
  TRACK 46 AUDIO
    TITLE "0:"
    INDEX 01 01:01:58
  TRACK 47 AUDIO
    TITLE "10:cjc040_2210"
    INDEX 01 01:02:40
  TRACK 48 AUDIO
    TITLE "0:"
    INDEX 01 01:03:67
  TRACK 49 AUDIO
    TITLE "11:cjc040_2211"
    INDEX 01 01:04:50
  TRACK 50 AUDIO
    TITLE "0:"
    INDEX 01 01:07:08
  TRACK 51 AUDIO
    TITLE "10:cjc040_2212"
    INDEX 01 01:07:66
  TRACK 52 AUDIO
    TITLE "0:"
    INDEX 01 01:09:32
  TRACK 53 AUDIO
    TITLE "11:cjc040_2213"
    INDEX 01 01:10:10
  TRACK 54 AUDIO
    TITLE "0:"
    INDEX 01 01:11:52
  TRACK 55 AUDIO
    TITLE "10:cjc040_2214"
    INDEX 01 01:12:30
  TRACK 56 AUDIO
    TITLE "0:"
    INDEX 01 01:13:45
  TRACK 57 AUDIO
    TITLE "11:cjc040_2215"
    INDEX 01 01:14:25
  TRACK 58 AUDIO
    TITLE "0:"
    INDEX 01 01:15:50
  TRACK 59 AUDIO
    TITLE "10:cjc040_2216"
    INDEX 01 01:16:34
  TRACK 60 AUDIO
    TITLE "0:"
    INDEX 01 01:17:59
  TRACK 61 AUDIO
    TITLE "11:cjc040_2217"
    INDEX 01 01:18:35
  TRACK 62 AUDIO
    TITLE "0:"
    INDEX 01 01:21:47
  TRACK 63 AUDIO
    TITLE "10:cjc040_2218"
    INDEX 01 01:22:27
  TRACK 64 AUDIO
    TITLE "0:"
    INDEX 01 01:23:56
  TRACK 65 AUDIO
    TITLE "11:cjc040_2219"
    INDEX 01 01:24:34
  TRACK 66 AUDIO
    TITLE "0:"
    INDEX 01 01:25:47
  TRACK 67 AUDIO
    TITLE "10:cjc040_2220"
    INDEX 01 01:26:30
  TRACK 68 AUDIO
    TITLE "0:"
    INDEX 01 01:27:40
  TRACK 69 AUDIO
    TITLE "11:cjc040_2221"
    INDEX 01 01:28:22
  TRACK 70 AUDIO
    TITLE "0:"
    INDEX 01 01:29:45
